# xmcd
#
# Track frame offsets:
# 150
# 20200
# 37217
# 66450
# 85636
# 103911
# 117062
# 134013
# 151463
# 172531
# 188119
#
# Disc length: 2878 seconds
#
#
# Revision: 1
# Processed by: cddbd v1.5.1PL0 Copyright (c) Steve Scherf et al.
# Submitted via: FreeRIP 2.94 
#
DISCID=960b3c0b
DTITLE=Kelly Richey - Sending Me Angels
DYEAR=2001
DGENRE=Blues
TTITLE0=Nothin' To Do With Love
TTITLE1=Too Late
TTITLE2=Nobody's Fault But Mine
TTITLE3=Livin' On Love
TTITLE4=Now You Need Me
TTITLE5=Sister's Got A Problem
TTITLE6=All The Help I Can Get
TTITLE7=I Gotta Move
TTITLE8=Lifetime Guarantee
TTITLE9=Angel From Heaven
TTITLE10=Sending Me Angels
EXTD=BluesfestRadio.com
EXTT0=
EXTT1=
EXTT2=
EXTT3=
EXTT4=
EXTT5=
EXTT6=
EXTT7=
EXTT8=
EXTT9=
EXTT10=
PLAYORDER=
